/* XPM */
static char *_f35d73c87654032ae05512926b985abHJo4uzKFvh2kgBct[] = {
/* columns rows colors chars-per-pixel */
"47 47 7 1 ",
"  c None",
". c #0E0E0E",
"X c gray25",
"o c #808080",
"O c gray75",
"+ c gray96",
"@ c white",
/* pixels */
"        ...                                    ",
"      ..X+o...              ...                ",
"     .OX++O.++.         ....+O.                ",
"    .OX++O.++O.     ....+OX++o.             ...",
"   .OX++O.++O.     .oOo+OX++o.            ..@@.",
"  .O+++O.++O.     .oXO+Oo++O.        .....@@Oo.",
"  .OX+++++O.      .XO+X+++O.       ..O@oX@Oo.. ",
" .OX++o++O.      .oO+X+++O.       .XO@X@@@O.   ",
" .O++o++O.       .oO++++OX...    .XO@X@@@O..   ",
" .oO+++OX.       .XOO++OXooO+.   .oO@@@@O.o.   ",
".OXoOOOOOX...   .O.oOOOOOOOo.    .XOO@@OXo.    ",
".@O..oOOOOO@@.  .+O.XooX....    .O.oOOOOOo.    ",
".O@Oo....XoOO.  .O+O....        .@O..oOo..     ",
" .OoX.   ....    .OoX.           .@oX...       ",
"  ...             ...             ...          ",
"                                               ",
"                                               ",
"                       .....                   ",
"        ..           ..XoO@O..        ......   ",
"     ...O@.         .oXO@O..@@.     ..XXXOoX...",
"    .O@oOO.        .oXOOX.@@Oo.    .oOoOoXX@@@.",
"   .O@OXoo.       .oO@OX@@Oo..    .oOO@OX@@OOO.",
"   .@...XXO.      .OX@@@@OX.      .OX@@@@@OX.. ",
"   .@@o.@@O.     .oX@@o@O..      .OX@@o@@O..   ",
"  .O@@.@OO..     .OO@o@O.Xo.     .OO@o@@O.X.   ",
" .Xo@oX...O.     .OOO@O.ooOO.    .oOO@@O.Xo.   ",
".@@.OOo.O@O.    .O.OOOOO@@Oo.   .O.oOOOOOo.    ",
".@OO.ooo...     .@O.oOOOXo..    .@O.XOOo..     ",
" .oOX...        .O@O.o....      .O@O....       ",
"  .oo.           .OoX.           .OoX.         ",
"   ..             ...             ...          ",
"        ..                                     ",
"       .O@.                                    ",
"       .@O.                      .. ..  . ..   ",
"       .@O.              ..     .   . .. .. .  ",
" ...  .@@o.       ..     .@.    . .... .....   ",
".@@O. .@OXo.     .@@.   .O@.    . . . .. .. .  ",
"..O@O.O@o.o.    .oO@X...O@O.     .. . .. ...   ",
"  .O@@oOX@O.    .OoXoO@@@O.                    ",
"   .@@@X@@OX.   .o.oO@@@@.         . . . .. .. ",
"   .@@@.@O.O.   .o.OOO@@oO.        . .. .. .. .",
"   .O@Oo..oO.    ..Ooo.XO@@....    ....... .. .",
"  .XoOOoXoO.      .oX.@@Xo@@@O.    . .. .. .. .",
" .@@XoOOo..        .o.O@@.oOO@.    . .. .. ... ",
" .@Oo....          .Oo.OOo....                 ",
"  .oOoo.            .OOX..                     ",
"   ....              ...                       "
};
